<?xml version="1.0" standalone="no"?>
<!DOCTYPE svg PUBLIC "-//W3C//DTD SVG 20010904//EN"
 "http://www.w3.org/TR/2001/REC-SVG-20010904/DTD/svg10.dtd">
<svg version="1.0" xmlns="http://www.w3.org/2000/svg"
 width="490.000000pt" height="281.000000pt" viewBox="0 0 490.000000 281.000000"
 preserveAspectRatio="xMidYMid meet">

<g transform="translate(0.000000,281.000000) scale(0.100000,-0.100000)"
fill="#ffff" stroke="none">
<path d="M1270 1844 l-85 -57 -65 17 c-166 46 -317 47 -411 4 -104 -47 -145
-112 -137 -217 19 -265 467 -557 825 -539 123 7 210 46 254 116 37 59 44 97
28 167 -22 97 -73 149 -102 104 -8 -12 -5 -30 11 -67 54 -126 4 -215 -135
-240 l-53 -9 0 228 c0 126 3 229 6 229 3 0 24 -16 47 -35 45 -39 59 -42 77
-20 20 24 2 51 -65 102 l-64 48 -3 110 c-4 137 -8 139 -128 59z m-258 -90 c49
-9 86 -19 83 -23 -2 -5 -93 -68 -201 -141 -155 -104 -198 -130 -206 -119 -53
78 -61 178 -17 225 32 35 54 46 119 60 76 17 121 17 222 -2z"/>
<path d="M1890 1753 c-105 -5 -109 -8 -74 -44 l29 -30 3 -210 3 -209 -33 -30
c-44 -41 -29 -50 89 -50 104 0 122 11 78 46 -23 18 -29 32 -32 76 -3 29 0 65
6 80 9 23 17 27 68 33 97 11 133 25 176 64 37 35 41 43 44 97 10 146 -82 192
-357 177z m215 -73 c56 -53 53 -155 -7 -205 -26 -22 -38 -26 -87 -23 l-56 3
-3 114 c-1 63 0 121 3 129 9 24 119 11 150 -18z"/>
<path d="M3968 1743 c-26 -7 -23 -14 30 -59 26 -23 74 -80 106 -128 l59 -88
-17 -36 c-33 -69 -131 -183 -178 -208 -16 -8 -28 -21 -28 -29 0 -12 16 -15 78
-15 43 0 81 3 84 6 3 3 1 18 -5 34 -9 24 -6 35 24 85 18 31 44 66 57 77 19 19
24 20 36 7 31 -32 96 -154 90 -169 -3 -8 -6 -19 -7 -25 -2 -12 123 -19 171
-10 l33 6 -53 53 c-62 61 -168 215 -168 242 0 39 103 171 168 216 55 38 44 48
-55 48 -75 0 -82 -4 -63 -41 12 -22 -5 -62 -53 -121 -34 -43 -44 -46 -63 -20
-57 73 -69 98 -69 136 l0 41 -80 2 c-44 0 -88 -1 -97 -4z"/>
<path d="M3269 1663 c-9 -10 -21 -32 -28 -50 -7 -18 -24 -39 -38 -48 l-25 -17
23 -24 c21 -22 24 -38 30 -154 7 -141 18 -172 67 -191 34 -13 95 -2 127 23 33
26 23 39 -23 32 -65 -10 -76 7 -80 127 -3 120 6 147 58 164 48 16 51 42 6 50
-42 8 -51 18 -63 65 -11 40 -32 49 -54 23z"/>
<path d="M2436 1565 c-55 -19 -94 -61 -111 -119 -25 -84 -14 -151 32 -207 98
-116 313 -75 352 66 50 181 -98 323 -273 260z m122 -41 c72 -50 81 -229 15
-290 -50 -46 -119 -24 -147 47 -20 50 -21 161 -1 199 19 36 52 60 85 60 14 0
36 -7 48 -16z"/>
<path d="M3624 1561 c-88 -40 -134 -137 -114 -238 22 -102 106 -161 214 -150
61 6 136 40 136 62 0 18 -22 19 -79 1 -84 -25 -163 11 -176 79 -9 49 3 55 117
64 134 11 152 20 145 72 -14 105 -134 159 -243 110z m109 -33 c12 -6 27 -18
34 -27 14 -18 17 -67 6 -74 -17 -10 -149 -17 -162 -8 -20 13 -6 58 29 92 30
31 58 36 93 17z"/>
<path d="M2822 1559 l-24 -9 26 -31 c25 -29 26 -36 26 -150 0 -115 -1 -121
-25 -145 -14 -14 -25 -29 -25 -34 0 -6 45 -10 105 -10 85 0 105 3 105 14 0 8
-8 21 -18 28 -32 22 -42 54 -42 128 0 121 32 164 106 140 45 -15 64 -7 64 28
0 56 -43 67 -118 30 l-45 -23 -15 23 c-11 17 -24 22 -56 21 -22 0 -52 -4 -64
-10z"/>
<path d="M428 1278 c-184 -123 -207 -147 -155 -168 12 -5 155 -27 317 -50 250
-34 299 -43 326 -63 17 -12 118 -121 223 -242 137 -157 200 -221 217 -223 13
-2 26 2 28 10 3 7 6 110 8 228 l3 215 -67 3 c-137 5 -340 75 -483 167 -73 46
-167 135 -209 196 l-31 46 -177 -119z"/>
</g>
</svg>
