<?xml version="1.0" standalone="no"?>
<!DOCTYPE svg PUBLIC "-//W3C//DTD SVG 20010904//EN"
 "http://www.w3.org/TR/2001/REC-SVG-20010904/DTD/svg10.dtd">
<svg version="1.0" xmlns="http://www.w3.org/2000/svg"
 width="100" height="135.000000pt" viewBox="0 0 142.000000 135.000000"
 preserveAspectRatio="xMidYMid meet">

<g transform="translate(0.000000,135.000000) scale(0.100000,-0.100000)"
fill="#ffff" stroke="none">
<path d="M1000 1298 l-74 -52 -66 18 c-166 46 -317 47 -411 4 -104 -47 -145
-112 -137 -217 19 -265 467 -557 825 -539 79 4 103 10 159 38 88 43 124 96
124 184 0 34 -5 78 -11 98 -13 50 -51 93 -73 85 -27 -11 -29 -35 -7 -87 54
-125 4 -212 -137 -238 l-52 -9 0 228 c0 126 3 229 6 229 3 0 24 -16 47 -35 45
-39 59 -42 77 -20 20 24 2 51 -65 102 l-64 48 -1 108 0 107 -32 -1 c-23 0 -57
-16 -108 -51z m-248 -84 c49 -9 86 -19 83 -23 -2 -5 -93 -68 -201 -141 -155
-104 -198 -130 -206 -119 -53 78 -61 178 -17 225 32 35 54 46 119 60 76 17
121 17 222 -2z"/>
<path d="M175 744 c-150 -101 -170 -117 -173 -144 -4 -36 -31 -30 333 -80 245
-34 294 -44 321 -63 17 -12 116 -119 219 -237 167 -191 192 -215 222 -218 l33
-3 0 194 c0 107 3 207 6 223 l5 29 -71 3 c-142 6 -340 74 -485 167 -73 46
-167 135 -209 196 l-31 46 -170 -113z"/>
</g>
</svg>
