<?xml version="1.0" standalone="no"?>
<!DOCTYPE svg PUBLIC "-//W3C//DTD SVG 20010904//EN"
 "http://www.w3.org/TR/2001/REC-SVG-20010904/DTD/svg10.dtd">
<svg version="1.0" xmlns="http://www.w3.org/2000/svg"
 width="648.000000pt" height="162.000000pt" viewBox="0 0 648.000000 162.000000"
 preserveAspectRatio="xMidYMid meet">

<g transform="translate(0.000000,162.000000) scale(0.100000,-0.100000)"
fill="#fff" stroke="none">
<path d="M4850 1460 c-19 -19 -20 -33 -20 -528 0 -561 -3 -531 61 -547 31 -8
83 15 93 40 3 9 6 63 6 119 l0 103 59 47 c33 25 66 46 74 46 25 0 127 -100
152 -150 13 -25 30 -73 39 -106 19 -74 54 -109 100 -100 38 7 66 39 66 75 0
39 -27 135 -51 184 -12 23 -57 77 -100 119 l-79 77 110 77 c72 50 112 85 116
101 15 60 -30 112 -81 93 -15 -6 -111 -71 -213 -146 l-187 -136 -5 306 c-4
271 -7 308 -22 326 -24 27 -90 28 -118 0z"/>
<path d="M253 1375 c-41 -21 -57 -36 -75 -73 -23 -46 -23 -52 -26 -447 -2
-433 -2 -438 51 -463 34 -16 92 -1 107 28 6 10 10 75 10 144 l0 126 160 0
c172 0 240 10 310 45 95 48 145 122 162 243 28 194 -46 335 -207 394 -52 19
-84 23 -250 26 -188 3 -190 3 -242 -23z m454 -157 c57 -37 78 -86 78 -178 -1
-88 -23 -135 -83 -172 -34 -21 -50 -23 -209 -26 l-173 -4 0 184 c0 247 -14
231 189 226 151 -3 159 -4 198 -30z"/>
<path d="M2591 1374 c-19 -24 -21 -40 -21 -150 l0 -124 -41 0 c-51 0 -77 -14
-90 -47 -21 -56 26 -103 102 -103 l29 0 0 -192 c0 -111 5 -210 11 -233 7 -23
28 -57 53 -81 98 -98 289 -72 352 48 20 38 17 61 -9 86 -31 30 -56 28 -98 -7
-47 -39 -82 -48 -114 -27 l-25 16 0 194 0 194 81 4 c70 3 83 6 100 27 27 34
24 75 -7 100 -22 17 -41 21 -100 21 l-74 0 0 103 c0 161 -17 197 -94 197 -25
0 -40 -7 -55 -26z"/>
<path d="M1154 1089 c-18 -20 -19 -43 -22 -327 -2 -213 1 -314 9 -333 14 -34
64 -54 100 -40 51 19 54 31 59 235 5 180 6 193 30 235 33 59 93 91 170 91 73
0 110 25 110 75 0 54 -39 78 -115 72 -69 -5 -109 -23 -166 -74 l-39 -35 0 39
c0 28 -7 46 -23 61 -31 29 -87 29 -113 1z"/>
<path d="M1870 1094 c-87 -24 -160 -79 -160 -121 0 -27 41 -73 64 -73 9 0 42
14 74 30 77 39 165 49 225 26 51 -19 77 -58 77 -115 l0 -41 -42 21 c-28 14
-68 24 -113 27 -192 12 -314 -75 -315 -226 0 -75 15 -116 61 -161 93 -93 278
-103 382 -20 33 27 37 28 37 11 0 -11 9 -30 19 -43 24 -30 89 -33 120 -5 20
18 21 29 21 260 0 232 -1 243 -24 291 -49 103 -129 147 -276 152 -63 2 -113
-2 -150 -13z m207 -385 c99 -37 99 -141 0 -178 -45 -17 -154 -14 -187 6 -67
39 -65 133 4 167 36 18 142 21 183 5z"/>
<path d="M3339 1087 c-131 -55 -192 -147 -205 -310 -25 -289 217 -462 510
-365 143 47 193 130 112 183 -25 17 -28 16 -98 -20 -125 -65 -265 -60 -328 12
-17 18 -30 42 -30 53 0 10 -3 25 -6 34 -5 14 17 16 207 16 184 0 219 2 248 18
55 27 76 64 75 130 -2 107 -60 189 -166 237 -52 24 -80 29 -163 32 -88 3 -107
1 -156 -20z m271 -147 c45 -23 67 -67 50 -99 -10 -20 -18 -21 -185 -21 -170 0
-175 1 -175 20 0 52 44 99 111 119 47 14 154 4 199 -19z"/>
<path d="M4176 1085 c-114 -47 -173 -126 -196 -264 -46 -275 141 -471 411
-431 117 17 221 68 240 118 11 29 -4 67 -35 88 -25 16 -28 15 -98 -22 -69 -37
-78 -39 -163 -39 -126 0 -175 30 -195 118 l-8 37 209 0 c227 0 273 8 303 55
58 88 6 241 -106 311 -91 58 -259 71 -362 29z m272 -142 c41 -20 72 -75 56
-101 -10 -15 -34 -17 -188 -20 -174 -2 -176 -2 -176 19 0 50 54 103 125 122
34 10 147 -3 183 -20z"/>

</g>
    <g transform="translate(0.000000,162.000000) scale(0.100000,-0.100000)"
       fill="#986DFF" stroke="#986DFF">
        <path d="M6068 593 c-72 -83 -36 -193 62 -193 80 0 124 84 85 160 -8 16 -24
34 -34 40 -32 16 -96 12 -113 -7z"/>
    </g>
</svg>
