<?xml version="1.0" standalone="no"?>
<!DOCTYPE svg PUBLIC "-//W3C//DTD SVG 20010904//EN"
 "http://www.w3.org/TR/2001/REC-SVG-20010904/DTD/svg10.dtd">
<svg version="1.0" xmlns="http://www.w3.org/2000/svg"
 width="50.000000pt" height="50.000000pt" viewBox="0 0 50.000000 50.000000"
 preserveAspectRatio="xMidYMid meet">

<g transform="translate(0.000000,50.000000) scale(0.100000,-0.100000)"
fill="#986DFF" stroke="none">
<path d="M52 448 c-17 -17 -17 -379 0 -396 14 -14 368 -18 368 -4 0 14 -64 70
-84 74 -28 5 -44 34 -30 56 23 36 74 21 74 -22 0 -24 62 -91 73 -80 13 13 8
359 -5 372 -7 7 -41 12 -80 12 -68 0 -69 -1 -118 -46 -31 -29 -50 -55 -50 -69
0 -44 -51 -59 -74 -22 -14 22 3 51 33 55 21 3 80 58 81 75 0 12 -175 8 -188
-5z m148 -24 c-8 -8 -28 -21 -46 -29 -59 -24 -66 -77 -13 -105 27 -15 66 10
75 48 4 15 23 44 42 65 35 36 38 37 109 37 l73 0 0 -172 c0 -167 0 -171 -19
-154 -10 9 -21 30 -25 46 -7 39 -47 65 -75 50 -53 -28 -46 -81 13 -105 18 -8
38 -21 46 -29 11 -14 -4 -16 -154 -16 l-166 0 0 190 0 190 76 0 c68 0 75 -2
64 -16z"/>
<path d="M305 375 c-14 -13 -25 -30 -25 -37 0 -19 -100 -114 -128 -123 -34
-10 -56 -49 -42 -74 18 -34 48 -45 75 -27 13 9 27 26 30 38 10 32 94 117 132
133 57 24 64 78 13 105 -26 14 -28 13 -55 -15z m69 -17 c14 -23 -3 -52 -32
-56 -29 -4 -142 -115 -142 -140 0 -41 -51 -55 -74 -20 -15 24 3 52 35 56 32 5
139 110 139 137 0 44 51 59 74 23z"/>
<path d="M324 349 c-10 -17 13 -36 27 -22 12 12 4 33 -11 33 -5 0 -12 -5 -16
-11z"/>
<path d="M144 169 c-10 -17 13 -36 27 -22 12 12 4 33 -11 33 -5 0 -12 -5 -16
-11z"/>
<path d="M144 349 c-10 -17 13 -36 27 -22 12 12 4 33 -11 33 -5 0 -12 -5 -16
-11z"/>
<path d="M324 169 c-10 -17 13 -36 27 -22 12 12 4 33 -11 33 -5 0 -12 -5 -16
-11z"/>
</g>
</svg>
