<svg width="32" height="32" viewBox="0 0 32 32" xmlns="http://www.w3.org/2000/svg">
    <path d="M16 0C7.164 0 0 7.164 0 16c0 7.074 4.572 13.067 10.903 15.162 0.8 0.147 1.092-0.348 1.092-0.771 0-0.381-0.017-1.65-0.025-3.004-4.44 0.964-5.363-2.143-5.363-2.143-0.723-1.839-1.767-2.326-1.767-2.326-1.448-0.991 0.109-0.97 0.109-0.97 1.602 0.113 2.447 1.642 2.447 1.642 1.426 2.439 3.738 1.735 4.653 1.326 0.146-1.032 0.558-1.735 1.017-2.133-3.56-0.405-7.29-1.781-7.29-7.929 0-1.747 0.624-3.171 1.646-4.292-0.165-0.404-0.715-2.034 0.157-4.236 0 0 1.344-0.431 4.396 1.641 1.273-0.356 2.635-0.533 3.985-0.54 1.35 0.007 2.712 0.184 3.985 0.54 3.051-2.072 4.394-1.641 4.394-1.641 0.874 2.202 0.322 3.832 0.157 4.236 1.023 1.121 1.643 2.545 1.643 4.292 0 6.161-3.736 7.52-7.306 7.916 0.573 0.495 1.086 1.473 1.086 2.967 0 2.143-0.019 3.868-0.019 4.389 0 0.425 0.287 0.92 1.1 0.767C27.428 29.065 32 23.074 32 16 32 7.164 24.836 0 16 0z" fill="#986DFF"/>
</svg>
